<?xml version="1.0" encoding="UTF-8"?>
<svg xmlns="http://www.w3.org/2000/svg" width="847" height="581" xmlns:xlink="http://www.w3.org/1999/xlink" viewBox="0 0 847 581">
  <defs>
    <style>
      .Graphic_Style {
        filter: url(#drop-shadow-1);
      }

      .Graphic_Style, .cls-1, .cls-2 {
        fill: #c7e8e2;
      }

      .cls-3 {
        fill: #fff;
      }

      .cls-4 {
        fill: #21a48b;
      }

      .cls-2 {
        filter: url(#drop-shadow-1-2);
      }
    </style>
    <filter id="drop-shadow-1" filterUnits="userSpaceOnUse">
      <feOffset dx="8" dy="8"/>
      <feGaussianBlur result="blur" stdDeviation="16"/>
      <feFlood flood-color="#000" flood-opacity=".2"/>
      <feComposite in2="blur" operator="in"/>
      <feComposite in="SourceGraphic"/>
    </filter>
    <filter id="drop-shadow-1-2" data-name="drop-shadow-1" filterUnits="userSpaceOnUse">
      <feOffset dx="8" dy="8"/>
      <feGaussianBlur result="blur-2" stdDeviation="16"/>
      <feFlood flood-color="#000" flood-opacity=".2"/>
      <feComposite in2="blur-2" operator="in"/>
      <feComposite in="SourceGraphic"/>
    </filter>
  </defs>
  <g id="Layer_1" data-name="Layer 1"/>
  <g id="Layer_2" data-name="Layer 2">
    <g id="Layer_1-2" data-name="Layer 1">
      <g>
        <path class="cls-2" d="M790.67,516.98V48.32c0-4.2-3.41-7.61-7.61-7.61H48.28c-4.2,0-7.61,3.41-7.61,7.61v468.66c0,4.2,3.41,7.61,7.61,7.61H783.06c4.2,0,7.61-3.41,7.61-7.61Z"/>
        <path class="cls-4" d="M790.67,48.35v20.27H40.67v-20.27c0-2.02,.8-3.95,2.23-5.38,1.43-1.43,3.36-2.23,5.38-2.23H783.04c2.02,0,3.95,.8,5.38,2.23,1.43,1.43,2.23,3.36,2.23,5.38h.03Z"/>
        <path class="cls-1" d="M55.43,61.74c3.9,0,7.07-3.17,7.07-7.07s-3.17-7.07-7.07-7.07-7.07,3.17-7.07,7.07,3.17,7.07,7.07,7.07Z"/>
        <path class="cls-1" d="M76.24,61.74c3.9,0,7.07-3.17,7.07-7.07s-3.17-7.07-7.07-7.07-7.07,3.17-7.07,7.07,3.17,7.07,7.07,7.07Z"/>
        <path class="cls-1" d="M97.02,61.74c3.9,0,7.07-3.17,7.07-7.07s-3.17-7.07-7.07-7.07-7.07,3.17-7.07,7.07,3.17,7.07,7.07,7.07Z"/>
        <path class="cls-3" d="M737.53,116.85H93.82c-4.63,0-8.39,3.76-8.39,8.39V460.42c0,4.63,3.76,8.39,8.39,8.39H737.53c4.63,0,8.39-3.76,8.39-8.39V125.23c0-4.63-3.76-8.39-8.39-8.39Z"/>
        <path class="cls-4" d="M630.51,370.31h-60.59c-2.78,0-5.03,2.25-5.03,5.03v60.59c0,2.78,2.25,5.03,5.03,5.03h60.59c2.78,0,5.03-2.25,5.03-5.03v-60.59c0-2.78-2.25-5.03-5.03-5.03Z"/>
        <path class="cls-3" d="M624.33,392.44l-10.75-10.75c-.34-.33-.79-.51-1.26-.51h-34.95c-.23,0-.47,.04-.68,.13-.22,.09-.41,.22-.58,.38s-.3,.36-.38,.58c-.09,.22-.13,.45-.13,.68v45.16c0,.47,.19,.92,.52,1.26,.33,.33,.78,.52,1.25,.52h45.54c.25,.02,.49,0,.73-.09,.23-.08,.45-.21,.63-.37s.33-.37,.43-.6c.1-.23,.15-.47,.15-.72v-34.41c0-.47-.19-.92-.51-1.26Z"/>
        <path class="cls-4" d="M603.15,382.95h-18.15v13.76h18.15v-13.76Z"/>
        <path class="cls-4" d="M615.3,409.16h-30.3v18.84h30.3v-18.84Z"/>
        <path class="cls-4" d="M710.78,370.31h-60.59c-2.78,0-5.03,2.25-5.03,5.03v60.59c0,2.78,2.25,5.03,5.03,5.03h60.59c2.78,0,5.03-2.25,5.03-5.03v-60.59c0-2.78-2.25-5.03-5.03-5.03Z"/>
        <path class="cls-3" d="M701.45,404.4l-17.85-17.77c-.24-.24-.56-.41-.9-.48-.34-.07-.69-.03-1.01,.1-.33,.13-.61,.36-.8,.65-.2,.29-.3,.64-.3,.99v10.3h-3.6c-4.9-.08-9.65,1.76-13.22,5.12-3.57,3.36-5.69,7.99-5.9,12.89-.01,.34,.06,.67,.23,.97,.17,.3,.41,.54,.71,.7,.3,.16,.63,.23,.96,.2,.33-.02,.65-.14,.92-.34l.43-.3,.51-.38c2.04-1.6,4.41-2.74,6.94-3.33,3.09-.62,6.24-.82,9.38-.59,.9,.07,1.8,.07,2.69,0,.04,.13,.04,.27,0,.4v10c0,.35,.1,.7,.3,.99,.2,.29,.48,.52,.8,.65,.22,.09,.44,.13,.67,.13,.46-.03,.88-.22,1.21-.54l17.82-17.88c.33-.33,.52-.78,.52-1.25s-.19-.92-.52-1.25Z"/>
        <path class="cls-4" d="M481.72,240.07H130c-2.05,0-3.71,1.66-3.71,3.71h0c0,2.05,1.66,3.71,3.71,3.71H481.72c2.05,0,3.71-1.66,3.71-3.71h0c0-2.05-1.66-3.71-3.71-3.71Z"/>
        <path class="cls-4" d="M509.33,264.45H130c-2.05,0-3.71,1.66-3.71,3.71h0c0,2.05,1.66,3.71,3.71,3.71H509.33c2.05,0,3.71-1.66,3.71-3.71h0c0-2.05-1.66-3.71-3.71-3.71Z"/>
        <path class="cls-4" d="M426.75,288.84H130c-2.05,0-3.71,1.66-3.71,3.71h0c0,2.05,1.66,3.71,3.71,3.71H426.75c2.05,0,3.71-1.66,3.71-3.71h0c0-2.05-1.66-3.71-3.71-3.71Z"/>
        <path class="cls-4" d="M128.82,197.33v-30.08h4.95l14.73,21.51v-21.51h5.05v30.08h-4.57l-15.11-22.07v22.07h-5.05Z"/>
        <path class="cls-4" d="M169.33,197.73c-1.88,.04-3.73-.42-5.38-1.32-1.57-.88-2.85-2.2-3.68-3.79-.92-1.8-1.38-3.81-1.32-5.83-.03-2.02,.37-4.03,1.18-5.89,.75-1.65,1.97-3.05,3.49-4.03,1.61-1.01,3.48-1.52,5.38-1.48,1.35-.09,2.71,.14,3.97,.65,1.26,.51,2.38,1.3,3.29,2.31,1.75,2.23,2.64,5.02,2.5,7.85v1.53h-14.87c-.09,1.6,.38,3.19,1.32,4.49,.47,.59,1.08,1.07,1.77,1.38,.69,.31,1.45,.45,2.21,.4,1.09,.03,2.17-.25,3.12-.81,.44-.27,.82-.63,1.12-1.05,.3-.42,.51-.9,.63-1.4h4.62c-.2,1.42-.82,2.75-1.77,3.82-.94,1.04-2.11,1.85-3.41,2.37-1.32,.53-2.74,.81-4.17,.81Zm-5.38-13.15h10.11c.05-1.41-.38-2.8-1.21-3.95-.83-.88-1.95-1.44-3.15-1.58-1.2-.14-2.42,.14-3.43,.8-.75,.52-1.35,1.23-1.72,2.07-.41,.83-.63,1.74-.65,2.66h.05Z"/>
        <path class="cls-4" d="M187.55,197.33l-6.8-21.51h4.54l4.46,14.81h.27l4.33-14.81h3.68l4.49,14.81h.24l4.33-14.78h4.62l-6.8,21.51h-4.38l-4.41-14.35-4.3,14.35-4.27-.03Z"/>
        <path class="cls-4" d="M231.32,197.63c-1.42,.11-2.84-.2-4.09-.89-.83-.52-1.45-1.34-1.72-2.28-.26-.95-.39-1.94-.38-2.93v-25.08h4.95v24.52c-.05,.76,.15,1.51,.56,2.15,.22,.28,.5,.51,.82,.67,.32,.16,.67,.24,1.03,.25h1.1v3.2l-1.16,.3c-.37,.07-.75,.11-1.13,.11Z"/>
        <path class="cls-4" d="M246.67,197.73c-1.88,.03-3.73-.42-5.38-1.32-1.57-.88-2.85-2.2-3.68-3.79-.92-1.8-1.38-3.81-1.32-5.83-.03-2.02,.37-4.03,1.18-5.89,.75-1.65,1.97-3.05,3.49-4.03,1.61-1.01,3.48-1.52,5.38-1.48,1.35-.09,2.71,.14,3.97,.65,1.26,.51,2.38,1.3,3.29,2.31,1.75,2.23,2.64,5.02,2.5,7.85v1.53h-14.87c-.09,1.6,.38,3.19,1.32,4.49,.47,.59,1.08,1.07,1.77,1.38,.69,.31,1.45,.45,2.21,.4,1.09,.03,2.17-.25,3.12-.81,.44-.27,.82-.63,1.12-1.05,.3-.42,.51-.9,.63-1.4h4.62c-.2,1.42-.82,2.75-1.77,3.82-.94,1.04-2.11,1.85-3.41,2.37-1.32,.53-2.74,.81-4.17,.81Zm-5.38-13.15h10.11c.04-1.41-.38-2.8-1.21-3.95-.45-.55-1.03-.98-1.69-1.26-.65-.28-1.37-.4-2.08-.35-.96-.01-1.9,.28-2.69,.83-.75,.52-1.35,1.23-1.72,2.07-.46,.82-.72,1.73-.78,2.66h.05Z"/>
        <path class="cls-4" d="M268.95,197.73c-1.45,0-2.88-.24-4.25-.73-1.3-.45-2.46-1.22-3.36-2.26-.95-1.12-1.55-2.49-1.72-3.95h4.46c.09,.56,.29,1.08,.61,1.55,.32,.46,.73,.85,1.22,1.14,.96,.48,2.01,.73,3.08,.73s2.12-.25,3.08-.73c.37-.2,.69-.49,.9-.86,.21-.37,.31-.79,.29-1.21,.01-.3-.04-.6-.16-.88-.12-.28-.29-.53-.52-.73-.62-.48-1.35-.8-2.12-.91l-4.09-.94c-1.6-.29-3.11-.98-4.38-1.99-.56-.48-1-1.09-1.29-1.77-.29-.68-.42-1.42-.38-2.15-.02-.91,.17-1.8,.55-2.63,.38-.82,.93-1.55,1.63-2.13,1.86-1.38,4.14-2.05,6.45-1.88,2.14-.11,4.26,.48,6.05,1.67,.75,.55,1.36,1.27,1.77,2.1,.41,.83,.6,1.76,.57,2.68h-4.3c-.06-.43-.21-.85-.44-1.22-.23-.37-.52-.7-.88-.96-.8-.53-1.73-.8-2.69-.78-1.02-.05-2.03,.18-2.93,.67-.37,.21-.67,.52-.88,.9-.2,.37-.3,.8-.28,1.22,0,.31,.08,.61,.23,.88,.15,.27,.37,.49,.63,.65,.84,.47,1.74,.8,2.69,.97l3.87,.91c1.24,.26,2.4,.82,3.39,1.61,.73,.59,1.3,1.36,1.64,2.23,.26,.71,.41,1.45,.43,2.2,.04,.94-.16,1.87-.58,2.72-.41,.84-1.03,1.57-1.79,2.12-1.92,1.28-4.2,1.89-6.51,1.75Z"/>
        <path class="cls-4" d="M290.4,197.73c-1.45,0-2.88-.24-4.25-.73-1.3-.45-2.46-1.22-3.36-2.26-.95-1.12-1.55-2.49-1.72-3.95h4.46c.09,.56,.29,1.08,.61,1.55,.32,.46,.73,.85,1.22,1.14,.96,.48,2.01,.73,3.08,.73s2.12-.25,3.08-.73c.37-.2,.69-.49,.9-.86,.21-.37,.31-.79,.29-1.21,.01-.3-.04-.6-.15-.88-.12-.28-.29-.53-.52-.73-.62-.48-1.35-.8-2.12-.91l-4.09-.94c-1.6-.29-3.11-.98-4.38-1.99-.56-.48-1-1.09-1.29-1.77-.29-.68-.42-1.42-.38-2.15-.02-.91,.17-1.8,.55-2.63,.38-.82,.93-1.55,1.63-2.13,1.86-1.38,4.15-2.05,6.45-1.88,2.14-.11,4.26,.48,6.05,1.67,.75,.55,1.36,1.27,1.77,2.1,.41,.83,.6,1.76,.57,2.68h-4.3c-.07-.43-.21-.85-.44-1.22-.23-.37-.52-.7-.88-.96-.8-.53-1.73-.8-2.69-.78-1.02-.05-2.03,.18-2.93,.67-.37,.21-.67,.52-.88,.9-.2,.37-.3,.8-.28,1.22,0,.31,.08,.61,.23,.88,.15,.27,.37,.49,.63,.65,.83,.47,1.74,.8,2.69,.97l3.87,.91c1.24,.26,2.4,.82,3.39,1.61,.73,.59,1.3,1.36,1.64,2.23,.26,.71,.41,1.45,.43,2.2,.04,.94-.16,1.87-.57,2.72-.41,.84-1.03,1.57-1.8,2.12-1.92,1.28-4.2,1.89-6.51,1.75Z"/>
        <path class="cls-4" d="M312.58,197.73c-1.37,.06-2.74-.17-4.01-.67-1.27-.51-2.43-1.27-3.38-2.26-1.91-2.24-2.88-5.13-2.69-8.06-.05-2.03,.37-4.04,1.21-5.89,.76-1.63,1.97-3,3.49-3.95,1.62-.97,3.49-1.46,5.38-1.42,1.37-.06,2.73,.17,4,.68s2.41,1.3,3.34,2.3c1.92,2.32,2.88,5.28,2.69,8.28,.05,1.99-.35,3.96-1.16,5.78-.75,1.6-1.94,2.96-3.44,3.9-1.65,.94-3.53,1.39-5.43,1.32Zm0-3.84c.78,.04,1.55-.13,2.23-.5,.69-.37,1.25-.92,1.64-1.6,.91-1.64,1.35-3.5,1.26-5.38,.01-1.24-.16-2.47-.51-3.66-.27-1.03-.83-1.97-1.61-2.69-.84-.7-1.92-1.05-3.01-.99-.78-.05-1.55,.11-2.24,.47-.69,.36-1.27,.89-1.68,1.55-.94,1.63-1.39,3.5-1.29,5.38,0,1.23,.17,2.45,.51,3.63,.29,1.03,.86,1.96,1.64,2.69,.89,.78,2.05,1.17,3.23,1.1h-.16Z"/>
        <path class="cls-4" d="M327.15,197.33v-21.51h4.97v3.09c.59-.93,1.38-1.71,2.31-2.28,1.24-.75,2.69-1.12,4.14-1.05,1.28-.01,2.55,.26,3.71,.81,1.13,.53,2.06,1.4,2.69,2.47,.75,1.32,1.11,2.82,1.05,4.33v14.17h-5.05v-13.44c.04-.58-.04-1.16-.25-1.7-.2-.54-.52-1.04-.94-1.44-.81-.71-1.86-1.08-2.93-1.05-1.16,0-2.29,.31-3.28,.91-.46,.28-.83,.68-1.09,1.15-.25,.47-.38,1-.37,1.54v14.06l-4.97-.05Z"/>
      </g>
    </g>
  </g>
</svg>